name analog
datacolumns 19
datarows 28
range 0.387 0.4005
endheader
time	ground_force_vx	ground_force_vy	ground_force_vz	ground_force_px	ground_force_py	ground_force_pz	l_ground_force_vx	l_ground_force_vy	l_ground_force_vz	l_ground_force_px	l_ground_force_py	l_ground_force_pz	ground_torque_x	ground_torque_y	ground_torque_z	l_ground_torque_x	l_ground_torque_y	l_ground_torque_z
0.387	-0.0	-0.0	-0.0	2.6183419227600098	35.159698486328125	-397.03607177734375	3.135798454284668	-35.68196105957031	-377.3880004882813	-0.0	-0.0	-0.0	-0.0	-0.0	-0.0	103982.375	-16332.765625	-10338.904296875
0.3875	-0.0	-0.0	-0.0	2.6136960983276367	34.671730041503906	-397.7425842285156	3.648370265960693	-35.54735565185547	-376.62939453125	-0.0	-0.0	-0.0	-0.0	-0.0	-0.0	103612.7578125	-16524.533203125	-10284.3115234375
0.388	-0.0	-0.0	-0.0	3.0488486289978027	34.58753204345703	-396.8500061035156	3.375495672225952	-35.28227996826172	-377.24951171875	-0.0	-0.0	-0.0	-0.0	-0.0	-0.0	103446.6796875	-16552.61328125	-10102.72265625
0.3885	-0.0	-0.0	-0.0	3.1801228523254395	34.40948867797852	-397.2029113769531	3.814563751220703	-35.26667022705078	-376.961181640625	-0.0	-0.0	-0.0	-0.0	-0.0	-0.0	103290.4609375	-16621.44140625	-10015.01171875
0.389	-0.0	-0.0	-0.0	3.0489203929901123	34.23679733276367	-397.2650451660156	3.918878555297852	-35.286964416503906	-376.2205505371094	-0.0	-0.0	-0.0	-0.0	-0.0	-0.0	103131.4921875	-16595.3984375	-10165.2890625
0.3895	-0.0	-0.0	-0.0	3.1799795627593994	33.99583435058594	-395.9368286132813	4.080696105957031	-34.834999084472656	-375.6871337890625	-0.0	-0.0	-0.0	-0.0	-0.0	-0.0	103230.765625	-16576.28125	-9997.498046875
0.39	-0.0	-0.0	-0.0	3.400030851364136	34.404335021972656	-396.1257629394531	4.153730392456055	-35.09492874145508	-374.76312255859375	-0.0	-0.0	-0.0	-0.0	-0.0	-0.0	103236.7109375	-16469.84765625	-9889.328125
0.3905	-0.0	-0.0	-0.0	2.959817886352539	34.51533508300781	-396.9114074707031	4.122272491455078	-35.18331527709961	-373.7777404785156	-0.0	-0.0	-0.0	-0.0	-0.0	-0.0	103093.0859375	-16711.27734375	-9934.8095703125
0.391	-0.0	-0.0	-0.0	2.8865513801574707	34.5252571105957	-396.582763671875	4.070724010467529	-34.643531799316406	-373.614990234375	-0.0	-0.0	-0.0	-0.0	-0.0	-0.0	102562.5859375	-16566.8203125	-9922.2958984375
0.3915	-0.0	-0.0	-0.0	3.065045118331909	34.45857238769531	-398.07135009765625	4.137838840484619	-35.09514236450195	-374.0656433105469	-0.0	-0.0	-0.0	-0.0	-0.0	-0.0	102920.8828125	-16679.244140625	-9927.591796875
0.392	-0.0	-0.0	-0.0	2.4246625900268555	34.80209732055664	-396.52093505859375	4.226480007171631	-35.12053298950195	-371.6841125488281	-0.0	-0.0	-0.0	-0.0	-0.0	-0.0	102354.3828125	-16398.435546875	-9873.4619140625
0.3925	-0.0	-0.0	-0.0	2.1730828285217285	34.865989685058594	-396.9742431640625	4.549540996551514	-35.19300079345703	-372.5700378417969	-0.0	-0.0	-0.0	-0.0	-0.0	-0.0	102575.8984375	-16650.484375	-9873.2265625
0.393	-0.0	-0.0	-0.0	1.9286757707595823	34.89100646972656	-397.2284240722656	4.517613410949707	-34.98460388183594	-373.1180114746094	-0.0	-0.0	-0.0	-0.0	-0.0	-0.0	102102.53125	-16409.025390625	-9688.998046875
0.3935	-0.0	-0.0	-0.0	2.124965190887451	35.32048416137695	-398.5143432617188	4.362754821777344	-34.96857452392578	-371.8464965820313	-0.0	-0.0	-0.0	-0.0	-0.0	-0.0	102166.65625	-16555.140625	-9835.2275390625
0.394	-0.0	-0.0	-0.0	2.4086837768554688	34.92300796508789	-396.9742431640625	4.58103609085083	-34.710426330566406	-371.2738342285156	-0.0	-0.0	-0.0	-0.0	-0.0	-0.0	101941.9296875	-16617.740234375	-9702.724609375
0.3945	-0.0	-0.0	-0.0	2.019522190093994	35.003700256347656	-397.2301330566406	4.653675556182861	-34.57431411743164	-369.2708129882813	-0.0	-0.0	-0.0	-0.0	-0.0	-0.0	102070.3046875	-16471.142578125	-9638.0205078125
0.395	-0.0	-0.0	-0.0	1.9626312255859373	35.125335693359375	-396.652587890625	4.685637474060059	-34.38056182861328	-370.6097106933594	-0.0	-0.0	-0.0	-0.0	-0.0	-0.0	101730.4765625	-16410.884765625	-9700.1806640625
0.3955	-0.0	-0.0	-0.0	2.497894287109375	35.182247161865234	-396.2360229492188	4.80645227432251	-34.646427154541016	-371.0216979980469	-0.0	-0.0	-0.0	-0.0	-0.0	-0.0	101799.5625	-16610.681640625	-9662.31640625
0.396	-0.0	-0.0	-0.0	2.514162302017212	34.8017578125	-394.4708251953125	5.15340518951416	-34.51774597167969	-370.5132751464844	-0.0	-0.0	-0.0	-0.0	-0.0	-0.0	101750.03125	-16490.873046875	-9697.2060546875
0.3965	-0.0	-0.0	-0.0	2.692619800567627	34.818336486816406	-394.72607421875	5.153223991394043	-34.49367141723633	-370.3863525390625	-0.0	-0.0	-0.0	-0.0	-0.0	-0.0	101724.640625	-16623.091796875	-9645.91015625
0.397	-0.0	-0.0	-0.0	2.936434268951416	34.71319580078125	-396.4270324707031	4.886916637420654	-34.79874420166016	-370.3225402832031	-0.0	-0.0	-0.0	-0.0	-0.0	-0.0	101471.578125	-16717.12890625	-9624.5390625
0.3975	-0.0	-0.0	-0.0	2.87111234664917	34.809940338134766	-394.8551635742188	5.024087429046631	-34.25267028808594	-369.97308349609375	-0.0	-0.0	-0.0	-0.0	-0.0	-0.0	101566.9140625	-16519.42578125	-9546.1044921875
0.398	-0.0	-0.0	-0.0	2.9039738178253174	35.100982666015625	-393.9905700683594	5.145225524902344	-34.42185592651367	-370.7350463867188	-0.0	-0.0	-0.0	-0.0	-0.0	-0.0	101858.515625	-16782.1328125	-9621.6669921875
0.3985	-0.0	-0.0	-0.0	2.88763165473938	35.52069854736328	-395.3661804199219	4.960517883300781	-34.28502655029297	-370.38580322265625	-0.0	-0.0	-0.0	-0.0	-0.0	-0.0	101575.65625	-16591.78125	-9594.546875
0.399	-0.0	-0.0	-0.0	3.0496416091918945	35.24623107910156	-394.6977844238281	5.016767501831055	-34.79874420166016	-370.8995361328125	-0.0	-0.0	-0.0	-0.0	-0.0	-0.0	101778.3125	-16461.564453125	-9575.841796875
0.3995	-0.0	-0.0	-0.0	2.82169508934021	35.731388092041016	-394.475830078125	4.556964874267578	-34.41288757324219	-370.2022399902344	-0.0	-0.0	-0.0	-0.0	-0.0	-0.0	101947.59375	-16560.654296875	-9622.119140625
0.4	-0.0	-0.0	-0.0	2.6763153076171875	35.658592224121094	-393.7301025390625	4.477965354919434	-34.533782958984375	-372.0400390625	-0.0	-0.0	-0.0	-0.0	-0.0	-0.0	102021.5234375	-16534.158203125	-9560.6328125
0.4005	-0.0	-0.0	-0.0	2.3360652923583984	36.07090377807617	-397.064697265625	4.573534965515137	-34.73331832885742	-372.38958740234375	-0.0	-0.0	-0.0	-0.0	-0.0	-0.0	101961.8203125	-16765.923828125	-9746.361328125
